<svg xmlns="http://www.w3.org/2000/svg" viewBox="0 0 64 64">
  <defs>
    <linearGradient id="bg" x1="0" x2="0" y1="0" y2="1">
      <stop offset="0%" stop-color="#FFF8EE"/>
      <stop offset="60%" stop-color="#FFE9C7"/>
      <stop offset="100%" stop-color="#FFD89C"/>
    </linearGradient>
    <linearGradient id="waffle" x1="0" x2="0" y1="0" y2="1">
      <stop offset="0%" stop-color="#FFD89C"/>
      <stop offset="100%" stop-color="#E8A53C"/>
    </linearGradient>
    <linearGradient id="pancake" x1="0" x2="0" y1="0" y2="1">
      <stop offset="0%" stop-color="#FFE4B5"/>
      <stop offset="100%" stop-color="#E8A53C"/>
    </linearGradient>
    <linearGradient id="pancake-edge" x1="0" x2="0" y1="0" y2="1">
      <stop offset="0%" stop-color="#E8A53C"/>
      <stop offset="100%" stop-color="#C97B3D"/>
    </linearGradient>
  </defs>
  <rect width="64" height="64" rx="14" fill="url(#bg)"/>
  <!-- E waffle bars -->
  <rect x="8" y="14" width="20" height="6" rx="1.4" fill="url(#waffle)" stroke="#C97B3D" stroke-width="0.6"/>
  <rect x="8" y="29" width="16" height="6" rx="1.4" fill="url(#waffle)" stroke="#C97B3D" stroke-width="0.6"/>
  <rect x="8" y="44" width="20" height="6" rx="1.4" fill="url(#waffle)" stroke="#C97B3D" stroke-width="0.6"/>
  <rect x="8" y="14" width="3" height="36" rx="1" fill="url(#waffle)" stroke="#C97B3D" stroke-width="0.6"/>
  <!-- M pancake stacks -->
  <ellipse cx="40" cy="44" rx="6" ry="2" fill="url(#pancake-edge)"/>
  <ellipse cx="40" cy="42" rx="6" ry="2" fill="url(#pancake)"/>
  <ellipse cx="40" cy="36" rx="6" ry="2" fill="url(#pancake-edge)"/>
  <ellipse cx="40" cy="34" rx="6" ry="2" fill="url(#pancake)"/>
  <ellipse cx="40" cy="28" rx="6" ry="2" fill="url(#pancake-edge)"/>
  <ellipse cx="40" cy="26" rx="6" ry="2" fill="url(#pancake)"/>
  <ellipse cx="54" cy="44" rx="6" ry="2" fill="url(#pancake-edge)"/>
  <ellipse cx="54" cy="42" rx="6" ry="2" fill="url(#pancake)"/>
  <ellipse cx="54" cy="36" rx="6" ry="2" fill="url(#pancake-edge)"/>
  <ellipse cx="54" cy="34" rx="6" ry="2" fill="url(#pancake)"/>
  <ellipse cx="54" cy="28" rx="6" ry="2" fill="url(#pancake-edge)"/>
  <ellipse cx="54" cy="26" rx="6" ry="2" fill="url(#pancake)"/>
  <path d="M40,26 L47,32 L54,26 L54,30 L47,36 L40,30 Z" fill="url(#pancake-edge)" opacity="0.85"/>
  <rect x="44" y="22" width="6" height="4" rx="1" fill="#FFFBF0"/>
  <!-- sparkle + bear-charm dot -->
  <path d="M58,12 l1,2 l2,1 l-2,1 l-1,2 l-1,-2 l-2,-1 l2,-1 z" fill="#A8E6CF"/>
  <circle cx="56" cy="56" r="4" fill="#E63946" stroke="#FFFCF5" stroke-width="1.2"/>
</svg>
