<svg xmlns="http://www.w3.org/2000/svg" viewBox="0 0 480 140" role="img" aria-label="EMGamer731">
  <defs>
    <linearGradient id="cap" x1="0" x2="0" y1="0" y2="1">
      <stop offset="0%" stop-color="#2A1E18"/>
      <stop offset="100%" stop-color="#0F0905"/>
    </linearGradient>
  </defs>
  <g transform="translate(20,30)">
    <rect width="80" height="80" rx="20" fill="url(#cap)"/>
    <g transform="translate(40,40) scale(1.2)">
      <path d="M-26,-10 Q0,5 26,-10 L26,-6 Q0,9 -26,-6 Z" fill="#FFFCF5" opacity="0.85"/>
      <path d="M-18,-14 Q-18,-30 0,-32 Q18,-30 18,-14 Z" fill="none" stroke="#FFFCF5" stroke-width="2" opacity="0.5"/>
      <path d="M-10,-14 L-10,-30 L-6,-30 L0,-22 L6,-30 L10,-30 L10,-14 L6,-14 L6,-24 L0,-16 L-6,-24 L-6,-14 Z" fill="#FFFCF5"/>
      <circle cx="0" cy="-32" r="2" fill="#E8A53C"/>
    </g>
  </g>
  <text x="120" y="78" font-family="ui-sans-serif, system-ui, sans-serif" font-weight="900" font-size="48" fill="#3B2A22" letter-spacing="-2">EMGamer<tspan font-family="ui-monospace, monospace" font-weight="700" fill="#E8A53C">731</tspan></text>
  <text x="120" y="102" font-family="ui-monospace, monospace" font-size="14" fill="#5B4B43" letter-spacing="-0.5">@eatsswithemm</text>
</svg>
