<svg xmlns="http://www.w3.org/2000/svg" viewBox="0 0 1280 720" preserveAspectRatio="xMidYMid slice">
  <defs>
    <linearGradient id="bg-cg" x1="0" y1="0" x2="1" y2="1">
      <stop offset="0" stop-color="#7B61FF"/>
      <stop offset="0.55" stop-color="#FF9EC0"/>
      <stop offset="1" stop-color="#FFD89C"/>
    </linearGradient>
    <radialGradient id="glow-cg" cx="0.5" cy="0.5" r="0.6">
      <stop offset="0" stop-color="#FFFCF5" stop-opacity="0.45"/>
      <stop offset="1" stop-color="#FFFCF5" stop-opacity="0"/>
    </radialGradient>
  </defs>
  <rect width="1280" height="720" fill="url(#bg-cg)"/>
  <rect width="1280" height="720" fill="url(#glow-cg)"/>
  <g fill="#FFFCF5" opacity="0.85">
    <circle cx="120" cy="110" r="3"/><circle cx="240" cy="60" r="2"/>
    <circle cx="980" cy="90" r="3"/><circle cx="1170" cy="180" r="2"/>
    <circle cx="60" cy="320" r="2"/><circle cx="1200" cy="540" r="3"/>
    <circle cx="180" cy="600" r="2"/><circle cx="900" cy="640" r="2"/>
  </g>
  <g transform="translate(640 380)">
    <ellipse cx="0" cy="80" rx="240" ry="28" fill="#3B2A22" opacity="0.18"/>
    <path d="M -220,-20 Q -220,90 0,100 Q 220,90 220,-20 Z" fill="#FFFCF5" stroke="#3B2A22" stroke-width="6"/>
    <ellipse cx="0" cy="-20" rx="220" ry="36" fill="#FFE5C8"/>
    <g fill="none" stroke-width="6">
      <circle cx="-130" cy="-30" r="20" stroke="#FF9EC0"/>
      <circle cx="-60" cy="-40" r="22" stroke="#A8E6CF"/>
      <circle cx="20" cy="-25" r="18" stroke="#FFD89C"/>
      <circle cx="90" cy="-45" r="22" stroke="#FF9EC0"/>
      <circle cx="160" cy="-30" r="20" stroke="#A8E6CF"/>
      <circle cx="-100" cy="0" r="16" stroke="#7B61FF"/>
      <circle cx="60" cy="0" r="18" stroke="#FF4757"/>
      <circle cx="130" cy="0" r="16" stroke="#7B61FF"/>
    </g>
  </g>
  <rect x="60" y="588" width="620" height="80" rx="24" fill="#3B2A22" opacity="0.78"/>
  <text x="84" y="640" font-family="system-ui,-apple-system,Segoe UI,sans-serif" font-size="38" font-weight="800" fill="#FFFCF5">CEREAL GALAXY · SPEEDRUN</text>
</svg>
